<?xml version="1.0" encoding="utf-8"?>
<!-- Generator: Adobe Illustrator 26.0.0, SVG Export Plug-In . SVG Version: 6.00 Build 0)  -->
<svg version="1.1" id="Capa_1" xmlns="http://www.w3.org/2000/svg" xmlns:xlink="http://www.w3.org/1999/xlink" x="0px" y="0px"
	 viewBox="0 0 25 25" style="enable-background:new 0 0 25 25;" xml:space="preserve">
<style type="text/css">
	.st0{fill:none;}
	.st1{fill:#242424;}
</style>
<path class="st0" d="M25.1,25C16.7,25,8.4,25,0,25c0-0.1,0-0.3,0-0.4C0,16.6,0,8.5,0,0.4C0,0,0,0,0.4,0c8.1,0,16.2,0,24.3,0
	c0.4,0,0.4,0,0.4,0.4c0,8.1,0,16.2,0,24.2C25.1,24.8,25.1,24.9,25.1,25z M20,12.5c0,2.3,0,4.7,0,7c0,0.6-0.4,1-1,1
	c-0.1,0-0.3,0-0.4,0c-1.2,0-2.3,0-3.5,0c-0.4,0-0.8,0.2-1,0.6c-0.2,0.4-0.1,0.7,0.1,1.1c0.3,0.3,0.6,0.4,1,0.4c1.2,0,2.3,0,3.5,0
	c0.3,0,0.6,0,0.9-0.1c1.5-0.3,2.5-1.5,2.5-3.1c0-4.6,0-9.2,0-13.8c0-0.2,0-0.5-0.1-0.7c-0.3-1.5-1.5-2.4-3-2.5c-0.7,0-1.3,0-2,0
	c-0.6,0-1.3,0-1.9,0c-0.5,0-0.9,0.3-1,0.7c-0.1,0.4,0,0.9,0.4,1.2c0.2,0.1,0.5,0.2,0.8,0.2c1.2,0,2.5,0,3.7,0C19.6,4.5,20,5,20,5.6
	C20,7.9,20,10.2,20,12.5z M12.4,13.6C12.4,13.6,12.4,13.6,12.4,13.6c0,0.1-0.1,0.2-0.2,0.3c-1,1-1.9,1.9-2.9,2.9
	c-0.3,0.3-0.4,0.6-0.4,1c0.1,0.4,0.3,0.7,0.7,0.8c0.4,0.1,0.7,0,1-0.3c1.8-1.8,3.7-3.7,5.5-5.5c0.2-0.2,0.2-0.3,0-0.4
	c-1.8-1.8-3.6-3.6-5.4-5.4c-0.1-0.1-0.2-0.2-0.3-0.2C10,6.2,9.2,6.5,9,7.3C8.9,7.7,9.1,8.1,9.4,8.4c0.9,1,1.9,1.9,2.8,2.8
	c0.1,0.1,0.1,0.1,0.2,0.2c0,0,0,0,0,0.1c-0.1,0-0.2,0-0.3,0c-3,0-5.9,0-8.9,0c-0.1,0-0.2,0-0.3,0c-0.6,0-1,0.4-1,1
	c0,0.5,0.4,1,0.9,1c0.2,0,0.3,0,0.5,0c2.9,0,5.9,0,8.8,0C12.2,13.6,12.3,13.6,12.4,13.6z"/>
<path class="st1" d="M20,12.5c0-2.3,0-4.6,0-7c0-0.6-0.4-1.1-1.1-1.1c-1.2,0-2.5,0-3.7,0c-0.3,0-0.5-0.1-0.8-0.2
	c-0.4-0.2-0.6-0.7-0.4-1.2c0.1-0.4,0.5-0.7,1-0.7c0.6,0,1.3,0,1.9,0c0.7,0,1.3,0,2,0c1.5,0,2.7,1,3,2.5c0.1,0.2,0.1,0.5,0.1,0.7
	c0,4.6,0,9.2,0,13.8c0,1.6-1,2.8-2.5,3.1c-0.3,0.1-0.6,0.1-0.9,0.1c-1.2,0-2.3,0-3.5,0c-0.4,0-0.8-0.1-1-0.4
	c-0.2-0.3-0.3-0.7-0.1-1.1c0.2-0.4,0.6-0.6,1-0.6c1.2,0,2.3,0,3.5,0c0.1,0,0.3,0,0.4,0c0.6,0,1-0.4,1-1C20,17.2,20,14.9,20,12.5z"/>
<path class="st1" d="M12.4,13.6c-0.1,0-0.2,0-0.3,0c-2.9,0-5.9,0-8.8,0c-0.2,0-0.3,0-0.5,0c-0.6-0.1-0.9-0.6-0.9-1c0-0.6,0.4-1,1-1
	c0.1,0,0.2,0,0.3,0c3,0,5.9,0,8.9,0c0.1,0,0.2,0,0.3,0c0,0,0,0,0-0.1c-0.1-0.1-0.1-0.1-0.2-0.2c-0.9-0.9-1.9-1.9-2.8-2.8
	C9.1,8.1,8.9,7.7,9,7.3c0.2-0.7,1-1,1.6-0.6c0.1,0.1,0.2,0.2,0.3,0.2c1.8,1.8,3.6,3.6,5.4,5.4c0.2,0.2,0.2,0.3,0,0.4
	c-1.9,1.8-3.7,3.7-5.5,5.5c-0.3,0.3-0.6,0.4-1,0.3C9.3,18.4,9,18.1,9,17.7c-0.1-0.4,0.1-0.7,0.4-1c1-1,1.9-1.9,2.9-2.9
	C12.3,13.8,12.4,13.7,12.4,13.6C12.4,13.6,12.4,13.6,12.4,13.6z"/>
</svg>
